<svg width="42" height="69" viewBox="0 0 42 69" fill="none" xmlns="http://www.w3.org/2000/svg">
<path opacity="0.5" d="M39.8656 18.216C39.8656 21.48 39.2576 24.776 38.0416 28.104C36.8896 31.432 35.3856 34.696 33.5296 37.896C31.7376 41.096 29.7216 44.2 27.4816 47.208C25.3056 50.152 23.1616 52.872 21.0496 55.368L15.9616 59.304V59.784L22.8736 58.44H41.3056V69H0.889626V62.568C2.42563 60.968 4.15363 59.112 6.07363 57C7.99363 54.824 9.91363 52.552 11.8336 50.184C13.8176 47.752 15.7376 45.256 17.5936 42.696C19.4496 40.136 21.1136 37.576 22.5856 35.016C24.0576 32.392 25.2096 29.864 26.0416 27.432C26.9376 25 27.3856 22.696 27.3856 20.52C27.3856 17.896 26.6176 15.752 25.0816 14.088C23.6096 12.36 21.2416 11.496 17.9776 11.496C15.9296 11.496 13.8176 11.944 11.6416 12.84C9.52963 13.672 7.73763 14.76 6.26562 16.104L1.27363 7.272C3.76963 5.224 6.58563 3.592 9.72163 2.376C12.9216 1.096 16.6656 0.455996 20.9536 0.455996C23.7056 0.455996 26.2336 0.839996 28.5376 1.608C30.8416 2.376 32.8256 3.49599 34.4896 4.96799C36.1536 6.43999 37.4656 8.296 38.4256 10.536C39.3856 12.712 39.8656 15.272 39.8656 18.216Z" fill="#6DD5EF"/>
</svg>
