<svg width="42" height="70" viewBox="0 0 42 70" fill="none" xmlns="http://www.w3.org/2000/svg">
<path opacity="0.5" d="M16.4016 58.784C20.3696 58.784 23.3776 57.728 25.4256 55.616C27.5376 53.504 28.5936 50.944 28.5936 47.936C28.5936 44.288 27.5056 41.6 25.3296 39.872C23.1536 38.144 19.7296 37.28 15.0576 37.28H8.14563V30.656L19.7616 14.816L25.2336 10.496L17.6496 11.36H1.52163V0.799995H38.1936V7.616L24.6576 25.76L20.4336 28.352V28.832L24.4656 28.256C26.7056 28.448 28.8176 28.96 30.8016 29.792C32.8496 30.624 34.6096 31.84 36.0816 33.44C37.6176 34.976 38.8336 36.896 39.7296 39.2C40.6256 41.504 41.0736 44.16 41.0736 47.168C41.0736 50.944 40.4336 54.208 39.1536 56.96C37.9376 59.712 36.2096 62.016 33.9696 63.872C31.7936 65.728 29.2336 67.104 26.2896 68C23.3456 68.896 20.1776 69.344 16.7856 69.344C13.9696 69.344 11.0576 69.088 8.04963 68.576C5.04163 68.064 2.60963 67.328 0.753625 66.368L4.11363 56C5.77763 56.832 7.60163 57.504 9.58563 58.016C11.6336 58.528 13.9056 58.784 16.4016 58.784Z" fill="#6DD5EF"/>
</svg>
