<svg width="41" height="70" viewBox="0 0 41 70" fill="none" xmlns="http://www.w3.org/2000/svg">
<path opacity="0.5" d="M15.3856 58.304C19.6096 58.304 22.8416 57.28 25.0816 55.232C27.3216 53.184 28.4416 50.368 28.4416 46.784C28.4416 42.944 27.1296 40.128 24.5056 38.336C21.8816 36.544 18.1376 35.648 13.2736 35.648L5.68963 35.936V0.799995H38.7136V12.512H16.4416V25.472L20.3776 25.088C23.5136 25.216 26.3296 25.792 28.8256 26.816C31.3856 27.84 33.5616 29.28 35.3536 31.136C37.1456 32.928 38.5216 35.136 39.4816 37.76C40.4416 40.32 40.9216 43.2 40.9216 46.4C40.9216 50.176 40.2816 53.504 39.0016 56.384C37.7216 59.264 35.9296 61.664 33.6256 63.584C31.3856 65.504 28.7296 66.944 25.6576 67.904C22.5856 68.864 19.2256 69.344 15.5776 69.344C12.6976 69.344 9.94563 69.088 7.32163 68.576C4.76163 68.128 2.58563 67.488 0.793625 66.656L4.15363 56.288C5.62563 56.928 7.22563 57.44 8.95363 57.824C10.7456 58.144 12.8896 58.304 15.3856 58.304Z" fill="#6DD5EF"/>
</svg>
