<svg width="45" height="64" viewBox="0 0 45 64" fill="none" xmlns="http://www.w3.org/2000/svg">
<rect width="45" height="64" rx="5" fill="#EBEAEA"/>
<path d="M25.7812 38.2646H18.8711L17.4268 10.5957H27.2256L25.7812 38.2646ZM17.3135 47.9502C17.3135 46.1755 17.7949 44.9294 18.7578 44.2119C19.7396 43.4945 20.9196 43.1357 22.2979 43.1357C23.6383 43.1357 24.79 43.4945 25.7529 44.2119C26.7347 44.9294 27.2256 46.1755 27.2256 47.9502C27.2256 49.6494 26.7347 50.8766 25.7529 51.6318C24.79 52.387 23.6383 52.7646 22.2979 52.7646C20.9196 52.7646 19.7396 52.387 18.7578 51.6318C17.7949 50.8766 17.3135 49.6494 17.3135 47.9502Z" fill="#FFA300"/>
</svg>
