<svg width="103" height="116" viewBox="0 0 103 116" fill="none" xmlns="http://www.w3.org/2000/svg">
<path d="M71.5935 13.4674H78.2017V100.001H71.5935V13.4674Z" fill="#606060"/>
<path d="M52.2626 102.895H84.509C86.4961 102.895 88.4017 102.137 89.8068 100.786C91.2119 99.4355 92.0012 97.6038 92.0012 95.6938V51.7068C92.0012 49.7969 91.2119 47.9651 89.8068 46.6146C88.4017 45.264 86.4961 44.5053 84.509 44.5053H52.2626C50.2756 44.5053 48.3699 45.264 46.9648 46.6146C45.5598 47.9651 44.7704 49.7969 44.7704 51.7068V95.6938C44.7704 97.6038 45.5598 99.4355 46.9648 100.786C48.3699 102.137 50.2756 102.895 52.2626 102.895ZM84.509 47.3859C85.7013 47.3859 86.8447 47.8412 87.6877 48.6515C88.5307 49.4618 89.0043 50.5609 89.0043 51.7068V95.6938C89.0043 96.8398 88.5307 97.9388 87.6877 98.7491C86.8447 99.5595 85.7013 100.015 84.509 100.015H52.2626C51.0704 100.015 49.927 99.5595 49.084 98.7491C48.2409 97.9388 47.7673 96.8398 47.7673 95.6938V51.7068C47.7673 50.5609 48.2409 49.4618 49.084 48.6515C49.927 47.8412 51.0704 47.3859 52.2626 47.3859H84.509Z" fill="#606060"/>
<path d="M25.8885 28.4744H82.7393V52.5131H25.8885V28.4744Z" fill="#E8B679"/>
<path d="M59.3187 28.4744H82.7393V52.5131H59.3187V28.4744Z" fill="#F7CC9F"/>
<path d="M66.3039 28.4744H73.6462V33.5155H66.3039V28.4744Z" fill="#FFE1C0"/>
<path d="M38.9447 28.4744H46.2871V33.5155H38.9447V28.4744Z" fill="#FFE1C0"/>
<path d="M61.2707 42.8063H65.8259V49.3739H61.2707V42.8063Z" fill="#4D4D4D"/>
<path d="M28.1986 44.4929H33.2783V49.3755H28.1986V44.4929Z" fill="#4D4D4D"/>
<path d="M68.6579 42.8063H73.2131V49.3739H68.6579V42.8063Z" fill="#4D4D4D"/>
<path d="M43.3302 47.9183H57.0859V49.373H43.3302V47.9183Z" fill="#4D4D4D"/>
<path d="M43.3302 44.4929H57.0859V45.9476H43.3302V44.4929Z" fill="#4D4D4D"/>
<path d="M50.2081 30.004H57.0859V31.4587H50.2081V30.004Z" fill="#4D4D4D"/>
<path d="M19.6733 52.4971H84.7205V96.0372H19.6733V52.4971Z" fill="#DBA763"/>
<path d="M58.1232 52.4971H84.7205V96.0372H58.1232V52.4971Z" fill="#E8B679"/>
<path d="M68.2807 52.4971H75.623V62.5793H68.2807V52.4971Z" fill="#FFE1C0"/>
<path d="M33.5632 52.4971H40.9055V62.5793H33.5632V52.4971Z" fill="#FFE1C0"/>
<path d="M60.7146 86.923H65.7793V94.2398H60.7146V86.923Z" fill="#4D4D4D"/>
<path d="M21.5459 86.923H34.1777V93.0587H21.5459V86.923Z" fill="#4D4D4D"/>
<path d="M67.4405 86.923H72.5203V94.2398H67.4405V86.923Z" fill="#4D4D4D"/>
<path d="M74.0188 86.923H79.0835V94.2398H74.0188V86.923Z" fill="#4D4D4D"/>
<path d="M42.5817 87.08H56.3374V88.5347H42.5817V87.08Z" fill="#4D4D4D"/>
<path d="M42.5817 90.5801H56.3374V92.0348H42.5817V90.5801Z" fill="#4D4D4D"/>
<path d="M42.5817 54.7441H56.3374V56.1988H42.5817V54.7441Z" fill="#4D4D4D"/>
<path d="M3.81771 104.751V104.391H100.557V104.751C100.557 106.279 99.9254 107.745 98.8014 108.825C97.6773 109.906 96.1528 110.513 94.5631 110.513H93.4843C93.6629 111.098 93.9866 111.633 94.4276 112.072C94.8687 112.511 95.4139 112.841 96.0166 113.033C96.1132 113.037 96.2068 113.067 96.2863 113.119C96.6077 113.209 96.8885 113.4 97.084 113.661C97.2795 113.922 97.3785 114.238 97.3652 114.56C97.3652 114.942 97.2073 115.308 96.9263 115.578C96.6453 115.848 96.2642 116 95.8668 116H85.138C84.7405 116 84.3594 115.848 84.0784 115.578C83.7974 115.308 83.6395 114.942 83.6395 114.56C83.6271 114.236 83.7282 113.919 83.9267 113.657C84.1251 113.396 84.4093 113.207 84.7334 113.119C84.8449 113.065 84.9679 113.035 85.093 113.033C85.7277 112.863 86.3082 112.544 86.7818 112.104C87.2554 111.663 87.6072 111.117 87.8052 110.513H58.1511C58.3274 111.099 58.6503 111.636 59.0916 112.075C59.533 112.514 60.0795 112.843 60.6834 113.033C60.7801 113.037 60.8736 113.067 60.9532 113.119C61.2745 113.209 61.5553 113.4 61.7508 113.661C61.9464 113.922 62.0453 114.238 62.032 114.56C62.032 114.942 61.8742 115.308 61.5932 115.578C61.3121 115.848 60.931 116 60.5336 116H49.8198C49.4224 116 49.0412 115.848 48.7602 115.578C48.4792 115.308 48.3213 114.942 48.3213 114.56C48.308 114.238 48.407 113.922 48.6026 113.661C48.7981 113.4 49.0789 113.209 49.4002 113.119C49.5131 113.068 49.6353 113.039 49.7598 113.033C50.3957 112.866 50.9775 112.547 51.4515 112.106C51.9255 111.666 52.2765 111.118 52.472 110.513H15.1609C15.327 111.088 15.634 111.618 16.0563 112.056C16.4786 112.495 17.0039 112.83 17.5884 113.033C17.685 113.037 17.7785 113.067 17.8581 113.119C18.1794 113.209 18.4602 113.4 18.6557 113.661C18.8513 113.922 18.9503 114.238 18.937 114.56C18.937 114.942 18.7791 115.308 18.4981 115.578C18.2171 115.848 17.8359 116 17.4385 116H6.72469C6.32728 116 5.94614 115.848 5.66513 115.578C5.38412 115.308 5.22625 114.942 5.22625 114.56C5.21294 114.238 5.31194 113.922 5.50748 113.661C5.703 113.4 5.9838 113.209 6.30513 113.119C6.41801 113.068 6.54017 113.039 6.66475 113.033C8.01334 112.86 8.86746 111.593 9.4069 110.455C7.8987 110.357 6.48473 109.715 5.44827 108.657C4.4118 107.599 3.82938 106.204 3.81771 104.751Z" fill="#606060"/>
<path d="M53.6564 96.0408H103V104.841H53.6564V96.0408Z" fill="#AFAFAF"/>
<path d="M5.34058e-05 96.0408H55.1426V104.841H5.34058e-05V96.0408Z" fill="#808080"/>
<path d="M54.8551 0H83.4303C86.7406 0 89.4241 2.57937 89.4241 5.76119V11.5656C89.4241 14.7474 86.7406 17.3268 83.4303 17.3268H54.8551C51.5448 17.3268 48.8613 14.7474 48.8613 11.5656V5.76119C48.8613 2.57937 51.5448 0 54.8551 0Z" fill="#606060"/>
<path d="M50.7342 0H79.3095C82.6197 0 85.3032 2.57937 85.3032 5.76119V11.5656C85.3032 14.7474 82.6197 17.3268 79.3095 17.3268H50.7342C47.424 17.3268 44.7405 14.7474 44.7405 11.5656V5.76119C44.7405 2.57937 47.424 0 50.7342 0Z" fill="#3F3F3F"/>
<path d="M49.4613 3.03928H80.7937V5.19962H49.4613V3.03928Z" fill="white"/>
<path d="M49.4613 7.06006H80.7937V13.6997H49.4613V7.06006Z" fill="#969696"/>
</svg>
