<svg width="46" height="46" viewBox="0 0 46 46" fill="none" xmlns="http://www.w3.org/2000/svg">
<path d="M33.0096 23.7543V35.4475C33.0096 36.0651 32.8059 36.6366 32.4622 37.0966C31.9585 37.7705 31.1558 38.2064 30.2507 38.2064H6.63085C5.72465 38.2064 4.9208 37.7705 4.41825 37.0966C4.38145 37.0472 4.3458 36.9966 4.31245 36.9437C4.02355 36.4982 3.87014 35.9785 3.87085 35.4475V11.8276C3.87085 10.3027 5.10595 9.06885 6.63085 9.06885H30.2507C31.2696 9.06885 32.1598 9.62085 32.637 10.4431L28.8397 14.2414L20.4355 22.6468L14.314 16.5254C13.233 15.4444 11.0722 15.4444 9.99345 16.5254L7.47265 19.0451C7.0897 19.428 6.84245 19.9467 6.73205 20.5043C6.52735 21.5198 6.7746 22.6686 7.47265 23.3668L18.2746 34.1687C19.3545 35.2486 21.5142 35.2486 22.5952 34.1687L25.116 31.6479L33.0096 23.7543Z" fill="#EEEEEE"/>
<path d="M41.3184 15.4444L33.0096 23.7544L25.116 31.648L22.5952 34.1688C21.5142 35.2487 19.3545 35.2487 18.2747 34.1688L7.47275 23.3669C6.7747 22.6688 6.52745 21.5199 6.73215 20.5044C6.84255 19.9467 7.0898 19.4281 7.47275 19.0452L9.99355 16.5255C11.0722 15.4445 13.2331 15.4445 14.3141 16.5255L20.4355 22.6469L28.8397 14.2415L32.637 10.4432L34.477 8.60433C35.558 7.52333 37.7189 7.52333 38.7976 8.60433L41.3184 11.124C41.6128 11.4194 41.8278 11.7944 41.9612 12.206C42.3189 13.3031 42.1038 14.659 41.3184 15.4444Z" fill="#81DBF1"/>
</svg>
